<?xml version="1.0" encoding="utf-8"?>
<!-- Generator: Adobe Illustrator 21.0.2, SVG Export Plug-In . SVG Version: 6.00 Build 0)  -->
<svg version="1.1" id="Layer_1" xmlns="http://www.w3.org/2000/svg" xmlns:xlink="http://www.w3.org/1999/xlink" x="0px" y="0px"
	 viewBox="0 0 262.5 90" style="enable-background:new 0 0 262.5 90;" xml:space="preserve">
<style type="text/css">
	.st0{fill:#FFFFFF;}
</style>
<path class="st0" d="M262.5,90H0V0h262.5V90z M0.9,89.3h260.7V0.8H0.9V89.3z"/>
<g>
	<path class="st0" d="M40.3,29.8c0,7.6-5.8,13-13.1,13C19.7,42.8,14,37.2,14,30c0-7.6,5.8-13,13.1-13C34.6,17,40.3,22.5,40.3,29.8
		 M36.1,29.9c0-6.9-3.3-11.7-8.9-11.7c-6.1,0-9,5.8-9,11.7c0,6.9,3.3,11.7,9,11.7C33.3,41.5,36.1,35.8,36.1,29.9"/>
	<path class="st0" d="M120.4,29.8c0,7.6-5.8,13-13.1,13c-7.4,0-13.1-5.5-13.1-12.8c0-7.6,5.8-13,13.1-13
		C114.7,17,120.4,22.5,120.4,29.8 M116.2,29.9c0-6.9-3.3-11.7-9-11.7c-6.1,0-9,5.8-9,11.7c0,6.9,3.3,11.7,9,11.7
		C113.3,41.5,116.2,35.8,116.2,29.9"/>
	<path class="st0" d="M130.5,30h3.1c4.7,0,5.8-3,5.8-5.8c0-2.2-1-4.2-3.2-5.1c-1.2-0.5-2.3-0.5-3.8-0.5h-1.9V30z M136.3,34
		c-1.5-2.1-2-2.8-3.8-2.8h-1.9v8.5c0,0.7,0.3,1,1,1.2l2.8,0.6v0.9h-11.2v-0.9l2.6-0.6c0.8-0.2,1-0.5,1-1.2V20.1c0-0.7-0.3-1-1-1.2
		l-2.6-0.6v-0.9h10.9c2.3,0,3.9,0.2,5.2,0.7c2.7,1,4.2,3.6,4.2,6c0,3.1-2.3,5.6-6.1,6.5v0.1c0.8,0.4,1.2,0.8,3.9,4.4l3.4,4.5
		c0.5,0.7,1.1,1.1,1.9,1.2l2.5,0.6v0.9h-6c-0.7,0-1-0.2-1.7-1L136.3,34z"/>
	<path class="st0" d="M87.3,25.9h1v8.3h-1l-0.6-2.5c-0.2-0.9-0.8-1.3-1.6-1.3h-6v9.2c0,0.7,0.3,1,1,1.2l2.8,0.6v0.9H71.8v-0.9
		l2.6-0.6c0.8-0.2,1-0.5,1-1.2V20.1c0-0.7-0.3-1-1-1.2l-2.6-0.6v-0.9h18.9v6.3h-1l-1.2-3.8c-0.3-1-0.7-1.3-1.5-1.3h-7.8v10.8h6
		c0.8,0,1.3-0.3,1.6-1.2L87.3,25.9z"/>
	<path class="st0" d="M151.1,42.4v-0.9l2.6-0.6c0.8-0.2,1-0.5,1-1.2V20.1c0-0.7-0.3-1-1-1.2l-2.6-0.6v-0.9h11.7
		c3.2,0,5.5,0.4,7.4,1.3c4.7,2.2,6.9,6.8,6.9,11.4c0,4.4-1.7,8.6-5.9,10.8c-1.9,1-4.7,1.5-8.2,1.5H151.1z M158.4,18.6v21.5
		c0,0.9,0.2,1.1,1.1,1.1h3.1c2.9,0,5.1-0.4,6.6-1.5c2.6-1.9,3.7-5.3,3.7-9.6c0-4.2-1.2-8.4-4.7-10.4c-1.5-0.8-3.3-1.1-6.2-1.1H158.4
		z"/>
	<path class="st0" d="M50,41.5v0.9h-8.8v-0.9l2.2-0.6c0.8-0.2,1.4-0.5,1.9-1.1l7.6-9.6l-7.6-10.1c-0.5-0.7-1.1-1-1.9-1.2l-2.1-0.6
		v-0.9h11v0.9L50,18.8c-0.8,0.1-0.6,0.5-0.2,1l5.6,8.1h0.1l5.8-8.1c0.4-0.6,0.6-0.8-0.2-1l-2.2-0.6v-0.9h8.8v0.9l-2.2,0.6
		c-0.8,0.2-1.4,0.5-1.9,1.1l-7.2,9.1l8.1,10.6c0.5,0.7,1.1,1,1.9,1.3l2.1,0.6v0.9h-11v-0.9l2.4-0.5c0.8-0.1,0.7-0.4,0.3-1l-6.1-8.6
		h-0.1L47.6,40c-0.4,0.6-0.6,0.8,0.2,1L50,41.5z"/>
</g>
<g>
	<path class="st0" d="M225,42.6c0-0.5-0.2-0.8-0.4-0.8c-0.2,0-0.4,0.2-0.4,0.7c0,0.5,0.2,0.8,0.4,0.8C224.9,43.3,225,43,225,42.6z"
		/>
	<path class="st0" d="M229,50.2h-9.2l-0.1,0.3c-0.2,0.4-0.4,0.8-1.5,0.8c-1,0-1.3-0.4-1.5-0.8l-0.1-0.3h-9.2V37.4h-0.8v0.4l-0.8-0.2
		c-0.1-0.3-0.4-0.5-0.7-0.5c-0.4,0-0.8,0.3-0.8,0.8s0.3,0.8,0.8,0.8c0.2,0,0.3-0.1,0.5-0.2l1,0.3v1l-0.8-0.1
		c-0.1-0.3-0.4-0.5-0.7-0.5c-0.4,0-0.8,0.3-0.8,0.8s0.3,0.8,0.8,0.8c0.2,0,0.4-0.1,0.5-0.2l0.9,0.2v1l-0.8,0
		c-0.1-0.2-0.4-0.4-0.6-0.4c-0.4,0-0.8,0.3-0.8,0.8s0.3,0.8,0.8,0.8c0.3,0,0.5-0.1,0.6-0.3l0.9,0v1.1l-0.8,0
		c-0.1-0.2-0.4-0.3-0.6-0.3c-0.4,0-0.8,0.3-0.8,0.8s0.3,0.8,0.8,0.8c0.3,0,0.5-0.1,0.6-0.4l0.8,0v1l-0.9,0.2
		c-0.1-0.1-0.3-0.2-0.6-0.2c-0.4,0-0.8,0.3-0.8,0.8s0.3,0.8,0.8,0.8c0.3,0,0.6-0.2,0.7-0.5l0.8-0.1v1l-1,0.3
		c-0.1-0.1-0.3-0.2-0.5-0.2c-0.4,0-0.8,0.3-0.8,0.8s0.3,0.8,0.8,0.8c0.3,0,0.6-0.2,0.7-0.5l0.8-0.2v1l-1.1,0.5
		c-0.1-0.1-0.3-0.1-0.4-0.1c-0.4,0-0.8,0.3-0.8,0.8c0,0.4,0.3,0.8,0.8,0.8c0.4,0,0.7-0.3,0.7-0.6l0.8-0.3V51h9.5
		c0.4,0.7,1.1,1,2.1,1s1.7-0.3,2.1-1h9.5V37.4H229V50.2z"/>
	<ellipse class="st0" cx="211.9" cy="33.8" rx="3.5" ry="0.7"/>
	<path class="st0" d="M211.9,32.3c1.7,0,3.1,0.2,3.7,0.5l1.2-3.8l-0.2-0.1l-2,1.4l0,0.1l0.5,0.2c0.1,0,0.1,0.1,0,0.2L214,32l-0.1,0
		l-0.9-1.3c-0.1-0.1,0-0.2,0.1-0.2l0.6-0.1v-0.2L212,28h-0.3l-1.6,2.2v0.2l0.6,0.1c0.1,0,0.1,0.1,0.1,0.2L210,32l-0.1,0l-1.2-1.1
		c0,0,0-0.1,0-0.2l0.5-0.2l0-0.1l-2.1-1.4l-0.2,0.1l1.2,3.8C208.8,32.5,210.2,32.3,211.9,32.3z"/>
	<ellipse class="st0" cx="218.2" cy="59.1" rx="3.5" ry="0.7"/>
	<path class="st0" d="M221,55.6l0,0.1l0.5,0.2c0.1,0,0.1,0.1,0,0.2l-1.3,1.1l-0.1,0l-0.9-1.3c-0.1-0.1,0-0.2,0.1-0.2l0.6-0.1v-0.2
		l-1.6-2.2H218l-1.6,2.2v0.2l0.6,0.1c0.1,0,0.1,0.1,0.1,0.2l-0.9,1.3l-0.1,0l-1.2-1.1c0,0,0-0.1,0-0.2l0.5-0.2l0-0.1l-2.1-1.4
		l-0.2,0.1l1.2,3.8c0.6-0.3,2.1-0.5,3.7-0.5c1.7,0,3.1,0.2,3.7,0.5l1.2-3.8l-0.2-0.1L221,55.6z"/>
	<ellipse class="st0" cx="224.4" cy="33.8" rx="3.5" ry="0.7"/>
	<path class="st0" d="M224.4,32.3c1.7,0,3.1,0.2,3.7,0.5l1.2-3.8l-0.2-0.1l-2,1.4l0,0.1l0.5,0.2c0.1,0,0.1,0.1,0,0.2l-1.3,1.1
		l-0.1,0l-0.9-1.3c-0.1-0.1,0-0.2,0.1-0.2l0.6-0.1v-0.2l-1.6-2.2h-0.3l-1.6,2.2v0.2l0.6,0.1c0.1,0,0.1,0.1,0.1,0.2l-0.9,1.3l-0.1,0
		l-1.2-1.1c0,0,0-0.1,0-0.2l0.5-0.2l0-0.1l-2.1-1.4l-0.2,0.1l1.2,3.8C221.3,32.5,222.7,32.3,224.4,32.3z"/>
	<path class="st0" d="M210.2,38.6c-0.1,0-0.1,0-0.1,0c0,0,0,0.1,0,0.1v1c0,0.2,0.1,0.3,0.2,0.3c0.2,0,0.5-0.3,0.5-0.7
		C210.7,38.7,210.4,38.6,210.2,38.6z"/>
	<path class="st0" d="M212.4,40.1c0.2,0,0.4-0.2,0.4-0.7c0-0.5-0.2-0.8-0.4-0.8c-0.2,0-0.4,0.2-0.4,0.7
		C211.9,39.7,212.1,40.1,212.4,40.1z"/>
	<path class="st0" d="M214.6,36.5h-6v12h6.5c1.5,0,2.4,0.3,2.5,1.7h0.1l0-10.9c0-1.1-0.4-1.9-1.1-2.4
		C216.1,36.6,215.5,36.5,214.6,36.5z M213.4,40.1c0.1,0,0.2,0,0.2-0.1c0-0.1,0-0.2,0-0.5l0-0.5c0-0.3,0-0.4-0.2-0.4v-0.1h0.6
		l0.5,1.1l0.4-1.1h0.6v0.1c-0.2,0-0.2,0-0.2,0.3l0,0.9c0,0.3,0,0.3,0.2,0.3v0.1h-0.8v-0.1c0.2,0,0.2,0,0.2-0.3l0-0.9h0l-0.5,1.3
		h-0.1l-0.5-1.2h0l0,0.6c0,0.2,0,0.4,0,0.4c0,0.1,0.1,0.1,0.2,0.1v0.1h-0.7V40.1z M214.9,42.7L214.9,42.7c-0.3-0.1-0.5-0.3-0.5-0.5
		c0-0.3,0.2-0.5,0.6-0.5c0.1,0,0.2,0,0.2,0c0.1,0,0.1,0,0.1,0c0,0.1,0,0.2,0.1,0.4l-0.1,0c-0.1-0.2-0.2-0.4-0.4-0.4
		c-0.1,0-0.2,0.1-0.2,0.2c0,0.1,0.1,0.2,0.3,0.3l0.1,0c0.2,0.1,0.5,0.2,0.5,0.6c0,0.3-0.3,0.6-0.7,0.6c-0.1,0-0.2,0-0.3,0
		c-0.1,0-0.1,0-0.2-0.1c0-0.1-0.1-0.3-0.1-0.4l0.1,0c0.1,0.2,0.2,0.4,0.5,0.4c0.1,0,0.2-0.1,0.2-0.3C215.2,42.8,215,42.7,214.9,42.7
		z M213.1,41.9c0,0.1,0.3,0.7,0.4,0.9c0.1-0.2,0.3-0.7,0.3-0.9c0.1-0.2,0-0.2-0.1-0.2l-0.1,0v-0.1h0.6v0.1c-0.2,0-0.2,0-0.3,0.3
		c0,0-0.3,0.8-0.5,1.4h-0.2c-0.2-0.5-0.4-1.1-0.5-1.4c-0.1-0.2-0.1-0.2-0.3-0.3v-0.1h0.9v0.1l-0.1,0
		C213.1,41.8,213.1,41.8,213.1,41.9z M212.4,38.4c0.5,0,0.9,0.4,0.9,0.9c0,0.6-0.4,0.9-0.9,0.9c-0.5,0-0.9-0.4-0.9-0.9
		C211.4,38.9,211.7,38.4,212.4,38.4z M209.4,40.2v-0.1c0.2,0,0.2,0,0.2-0.3v-0.9c0-0.3,0-0.3-0.2-0.3v-0.1h0.8
		c0.3,0,0.6,0.1,0.8,0.2c0.1,0.1,0.2,0.3,0.2,0.5c0,0.7-0.5,0.9-1.1,0.9H209.4z M211.2,44.9c-0.2,0-0.2,0-0.2,0.3v0.9
		c0,0.3,0,0.3,0.2,0.3v0.1h-0.9v-0.1c0.2,0,0.2,0,0.2-0.3v-0.9c0-0.3,0-0.3-0.2-0.3v-0.1h0.9V44.9z M211.2,43.4h-0.7v-0.1
		c0.1,0,0.2,0,0.2-0.1c0-0.1,0-0.2,0-0.5v-0.5c0-0.2,0-0.2-0.1-0.3c0-0.1-0.1-0.1-0.2-0.1v-0.1h0.6l0.9,1.1h0v-0.4
		c0-0.3,0-0.4,0-0.5c0-0.1-0.1-0.1-0.3-0.1v-0.1h0.7v0.1c-0.1,0-0.2,0-0.2,0.1c0,0.1,0,0.2,0,0.5v1h-0.2l-1-1.3h0v0.5
		c0,0.3,0,0.4,0,0.5c0,0.1,0.1,0.1,0.3,0.1V43.4z M212.7,46.5h-1.3v-0.1c0.2,0,0.2,0,0.2-0.3v-0.9c0-0.3,0-0.3-0.2-0.3v-0.1h0.9v0.1
		c-0.2,0-0.2,0-0.2,0.3v0.9c0,0.1,0,0.2,0.1,0.2c0,0,0.1,0,0.2,0c0.1,0,0.2,0,0.3-0.1c0-0.1,0.1-0.1,0.1-0.3l0.1,0
		C212.8,46.2,212.7,46.5,212.7,46.5z M214.2,46.5h-1.3v-0.1c0.2,0,0.2,0,0.2-0.3v-0.9c0-0.3,0-0.3-0.2-0.3v-0.1h0.9v0.1
		c-0.2,0-0.2,0-0.2,0.3v0.9c0,0.1,0,0.2,0.1,0.2c0,0,0.1,0,0.2,0c0.1,0,0.2,0,0.3-0.1c0-0.1,0.1-0.1,0.1-0.3l0.1,0
		C214.2,46.2,214.2,46.5,214.2,46.5z M215.8,44.9c-0.2,0-0.2,0-0.3,0.3c0,0-0.3,0.8-0.5,1.4h-0.2c-0.2-0.5-0.4-1.1-0.5-1.4
		c-0.1-0.2-0.1-0.2-0.3-0.3v-0.1h0.9v0.1l-0.1,0c-0.1,0-0.1,0-0.1,0.1c0,0.1,0.3,0.7,0.4,0.9c0.1-0.2,0.3-0.7,0.3-0.9
		c0.1-0.2,0-0.2-0.1-0.2l-0.1,0v-0.1h0.6V44.9z M216.6,38.5c-0.2,0-0.2,0-0.2,0.3v0.9c0,0.3,0,0.3,0.2,0.3v0.1h-0.9v-0.1
		c0.2,0,0.2,0,0.2-0.3v-0.9c0-0.3,0-0.3-0.2-0.3v-0.1h0.9V38.5z"/>
	<polygon class="st0" points="225.7,39 225.7,39 225.5,39.5 225.9,39.5 	"/>
	<path class="st0" d="M221.2,48.6h6.5v-12h-6c-0.8,0-1.5,0.1-2,0.4c-0.8,0.5-1.1,1.3-1.1,2.4l0,10.9h0.1
		C218.8,48.9,219.7,48.6,221.2,48.6z M222.7,46.5h-0.8v-0.1c0.2,0,0.2,0,0.2-0.3l0-0.9h0l-0.5,1.3h-0.1l-0.5-1.2h0l0,0.6
		c0,0.2,0,0.4,0,0.4c0,0.1,0.1,0.1,0.2,0.1v0.1h-0.7v-0.1c0.1,0,0.2,0,0.2-0.1c0-0.1,0-0.2,0-0.5l0-0.5c0-0.3,0-0.4-0.2-0.4v-0.1
		h0.6l0.5,1.1l0.4-1.1h0.6v0.1c-0.2,0-0.2,0-0.2,0.3l0,0.9c0,0.3,0,0.3,0.2,0.3V46.5z M222.1,43.3v0.1h-0.9v-0.1
		c0.2,0,0.2,0,0.2-0.3v-1.2h0c-0.2,0-0.2,0-0.3,0.1c0,0-0.1,0.1-0.1,0.3h-0.1c0-0.2,0-0.4,0-0.5h0.1c0,0.1,0.1,0.1,0.1,0.1h1.1
		c0.1,0,0.1,0,0.1-0.1h0.1c0,0.1,0,0.3,0,0.5l-0.1,0c0-0.2-0.1-0.2-0.1-0.3c0,0-0.1-0.1-0.3-0.1h-0.1v1.2
		C221.9,43.2,221.9,43.2,222.1,43.3z M222.6,41.7v-0.1h0.9v0.1c-0.2,0-0.2,0-0.2,0.3v0.9c0,0.3,0,0.3,0.2,0.3v0.1h-0.9v-0.1
		c0.2,0,0.2,0,0.2-0.3v-0.9C222.8,41.8,222.8,41.7,222.6,41.7z M224.2,46.5h-1.4v-0.1c0.2,0,0.2,0,0.2-0.3v-0.9c0-0.3,0-0.3-0.2-0.3
		v-0.1h1.3c0,0,0,0.2,0,0.4l-0.1,0c0-0.1-0.1-0.2-0.1-0.2c0,0-0.1-0.1-0.3-0.1h0c-0.1,0-0.1,0-0.1,0.1v0.5h0.1c0.2,0,0.2,0,0.3-0.2
		h0.1V46h-0.1c0-0.2,0-0.3-0.3-0.3h-0.1v0.4c0,0.1,0,0.2,0.1,0.2c0,0,0.1,0,0.2,0c0.1,0,0.2,0,0.3-0.1c0,0,0.1-0.1,0.1-0.3l0.1,0
		C224.3,46.2,224.2,46.5,224.2,46.5z M223.7,42.5c0-0.4,0.3-0.9,0.9-0.9c0.5,0,0.9,0.4,0.9,0.9c0,0.6-0.4,0.9-0.9,0.9
		C224.1,43.4,223.7,43,223.7,42.5z M226.1,46.5h-0.8v-0.1l0.1,0c0.1,0,0.1,0,0.1-0.1l-0.1-0.3h-0.4l-0.1,0.3c0,0.1,0,0.1,0.1,0.2
		l0.1,0v0.1h-0.6v-0.1c0.1,0,0.2,0,0.3-0.3l0.5-1.4l0.2,0l0.2,0.5c0.1,0.3,0.2,0.6,0.3,0.9c0.1,0.2,0.1,0.2,0.3,0.3V46.5z
		 M225.2,39.8l0.5-1.4l0.2,0l0.2,0.5c0.1,0.3,0.2,0.6,0.3,0.9c0.1,0.2,0.1,0.2,0.3,0.3v0.1h-0.8v-0.1l0.1,0c0.1,0,0.1,0,0.1-0.1
		l-0.1-0.3h-0.4l-0.1,0.3c0,0.1,0,0.1,0.1,0.2l0.1,0v0.1h-0.6v-0.1C225.1,40,225.1,40,225.2,39.8z M223.1,38.4h0.6l0.9,1.1h0v-0.4
		c0-0.3,0-0.4,0-0.5c0-0.1-0.1-0.1-0.3-0.1v-0.1h0.7v0.1c-0.1,0-0.2,0-0.2,0.1c0,0.1,0,0.2,0,0.5v1h-0.2l-1-1.3h0v0.5
		c0,0.3,0,0.4,0,0.5c0,0.1,0.1,0.1,0.3,0.1v0.1h-0.7v-0.1c0.1,0,0.2,0,0.2-0.1c0-0.1,0-0.2,0-0.5v-0.5c0-0.2,0-0.2-0.1-0.3
		c0-0.1-0.1-0.1-0.2-0.1V38.4z M222.1,40.1c0.2,0,0.2,0,0.2-0.3v-0.9c0-0.3,0-0.3-0.2-0.3v-0.1h0.9v0.1c-0.2,0-0.2,0-0.2,0.3v0.9
		c0,0.3,0,0.3,0.2,0.3v0.1h-0.9V40.1z M219.7,40.1c0.1,0,0.2,0,0.2-0.1c0-0.1,0-0.2,0-0.5l0-0.5c0-0.3,0-0.4-0.2-0.4v-0.1h0.6
		l0.5,1.1l0.4-1.1h0.6v0.1c-0.2,0-0.2,0-0.2,0.3l0,0.9c0,0.3,0,0.3,0.2,0.3v0.1h-0.8v-0.1c0.2,0,0.2,0,0.2-0.3l0-0.9h0l-0.5,1.3
		h-0.1l-0.5-1.2h0l0,0.6c0,0.2,0,0.4,0,0.4c0,0.1,0.1,0.1,0.2,0.1v0.1h-0.7V40.1z"/>
	<polygon class="st0" points="225.1,45.4 224.9,45.9 225.2,45.9 225.1,45.4 	"/>
	<circle class="st0" cx="215.1" cy="67.9" r="0.7"/>
	<circle class="st0" cx="222.1" cy="69.1" r="0.7"/>
	<circle class="st0" cx="218.1" cy="18.9" r="0.7"/>
	
		<ellipse transform="matrix(4.181343e-02 -0.9991 0.9991 4.181343e-02 199.5459 258.7503)" class="st0" cx="234.7" cy="25.3" rx="0.7" ry="0.7"/>
	<path class="st0" d="M195.2,56.6l0.5,0.7l2.4-1.6c0.5-0.3,0.8-0.5,1-0.5c0.3,0,0.6,0.1,0.9,0.5c0.2,0.2,0.2,0.5,0.2,0.7
		c0,0.3-0.2,0.6-0.6,0.9c0,0-2.6,1.9-2.6,1.9l0.5,0.7l2.5-1.8c0.9-0.6,1-1,1-1.5c0-0.4-0.1-0.8-0.4-1.2c-0.3-0.4-0.8-0.9-1.5-0.9
		c-0.5,0-1,0.3-1.6,0.7L195.2,56.6z"/>
	<polygon class="st0" points="197.6,49.3 197.3,48.6 192.5,50.3 192.8,51 196.3,49.8 193.6,53.1 193.8,53.8 198.5,52 198.3,51.3 
		194.8,52.7 	"/>
	<rect x="191.8" y="46.1" transform="matrix(0.9892 -0.1467 0.1467 0.9892 -4.7221 29.0261)" class="st0" width="5" height="0.8"/>
	<polygon class="st0" points="196.7,41.7 191.7,39.6 191.7,40.5 195.7,42 191.5,43.2 191.5,44 196.6,42.5 	"/>
	<path class="st0" d="M197.8,30.6c-0.1,0-0.2,0.1-0.2,0.1c0-0.1,0.1-0.2,0.1-0.3c0-0.1,0-0.3-0.1-0.4c-0.1-0.3-0.3-0.5-0.6-0.7
		c-0.2-0.1-0.5-0.2-0.7-0.2c-0.7,0-1,0.4-1.5,1.2l-0.6,1.1l4.4,2.4l0.4-0.7l-1.8-1l0.1-0.2c0.3-0.6,0.4-0.6,1.2-0.6l1.4,0.1l0.4-0.7
		l-1.7-0.1C198.3,30.6,198,30.6,197.8,30.6z M196.6,31.7l-0.1,0.2l-1.4-0.8l0.2-0.4c0.3-0.5,0.5-0.7,0.8-0.7c0.1,0,0.3,0,0.4,0.1
		c0.2,0.1,0.3,0.3,0.4,0.5c0,0.1,0,0.1,0,0.2C197,31.1,196.8,31.4,196.6,31.7z"/>
	<rect x="203.2" y="21.3" transform="matrix(0.7947 -0.607 0.607 0.7947 27.3508 128.4623)" class="st0" width="0.8" height="5"/>
	<polygon class="st0" points="208.1,19 207.8,18.4 204.5,20.1 204.8,20.7 206.1,20 208.1,23.9 208.8,23.5 206.8,19.6 	"/>
	<polygon class="st0" points="212.7,16.8 212.2,19.3 210.5,17.5 209.7,17.7 212.1,20.2 212.6,22.1 213.4,21.9 212.8,20 213.5,16.6 	
		"/>
	<polygon class="st0" points="228.1,23.7 228.8,24.1 229.9,22.2 231.5,23.1 231.9,22.5 230.3,21.6 231,20.4 232.7,21.4 233,20.8 
		230.6,19.4 	"/>
	<polygon class="st0" points="239.1,37.3 239.3,38.2 241.3,35.8 244.1,36.5 243.8,35.7 241.8,35.2 243.2,33.7 242.9,32.8 241,35 
		238.1,34.3 238.3,35.1 240.6,35.6 	"/>
	<polygon class="st0" points="239.7,40.7 241.9,40.6 242.1,42.4 242.8,42.4 242.6,40.5 244,40.4 244.2,42.4 244.9,42.3 244.6,39.5 
		239.6,39.9 	"/>
	<path class="st0" d="M241.8,44.4c-0.6,0-1.1,0.2-1.5,0.5c-0.8,0.6-0.9,1.3-0.9,1.8c0,1.7,1.6,2.4,2.8,2.4c0.6,0,1.1-0.2,1.5-0.5
		c0.9-0.6,0.9-1.5,0.9-1.8C244.6,45.3,243.2,44.4,241.8,44.4z M243.3,48c-0.3,0.2-0.7,0.3-1.1,0.3c-1,0-2.1-0.5-2.1-1.5
		c0-0.4,0.1-0.8,0.6-1.2c0.3-0.2,0.7-0.3,1.1-0.3c0.5,0,1.4,0.1,1.9,0.8c0.2,0.2,0.2,0.5,0.2,0.8C243.9,47.2,243.8,47.7,243.3,48z"
		/>
	<path class="st0" d="M239.8,32c0.6-0.4,1.3-1.1,1.3-2.1c0-0.4-0.1-0.8-0.4-1.2c-0.4-0.7-1.1-1.1-1.9-1.1c-0.5,0-1.1,0.2-1.6,0.5
		c-1,0.6-1.3,1.5-1.3,2.1c0,0.4,0.1,0.8,0.4,1.2c0.5,0.8,1.3,1.1,1.9,1.1C238.8,32.5,239.3,32.3,239.8,32z M237,31.1
		c-0.1-0.2-0.2-0.5-0.2-0.7c0-0.6,0.4-1.2,1-1.6c0.4-0.3,0.9-0.4,1.3-0.4c0.5,0,0.9,0.2,1.1,0.6c0.2,0.2,0.2,0.5,0.2,0.8
		c0,0.6-0.4,1.1-1,1.5c-0.4,0.3-0.9,0.4-1.3,0.4C237.7,31.7,237.2,31.6,237,31.1z"/>
	<path class="st0" d="M225.1,17.2c-1.1,0-2,0.7-2.3,2c-0.1,0.3-0.1,0.6-0.1,0.8c0,0.5,0.1,0.9,0.3,1.3c0.5,0.9,1.3,1.1,2,1.1
		c0.4,0,0.7-0.1,1-0.3c0.9-0.5,1.4-1.5,1.4-2.6c0-0.4-0.1-0.9-0.3-1.2C226.7,17.6,225.9,17.2,225.1,17.2z M224.9,21.7
		c-0.4,0-0.9-0.2-1.2-0.7c-0.1-0.3-0.2-0.6-0.2-0.9c0-0.9,0.6-2.2,1.7-2.2c0.6,0,1.4,0.5,1.4,1.6C226.6,20.3,226,21.7,224.9,21.7z"
		/>
	<polygon class="st0" points="197.8,35.7 197.2,35.5 196.6,37.5 195.1,37.1 195.6,35.3 194.9,35.1 194.4,36.9 193.1,36.6 
		193.7,34.6 193,34.4 192.2,37.2 197.1,38.5 	"/>
	<path class="st0" d="M201.3,26c-0.4,0-0.8,0.2-1.1,0.3c-0.4,0.1-1,0.5-1.3,0.2c-0.1-0.1-0.2-0.3-0.2-0.4c0-0.2,0.1-0.4,0.3-0.6
		c0.4-0.5,1-0.5,1-0.5l-0.1-0.7c0,0-0.7-0.1-1.4,0.7c-0.3,0.4-0.5,0.8-0.5,1.2c0,0.4,0.2,0.7,0.5,1c0.6,0.5,1.2,0.3,1.8,0.1
		c0.3-0.1,0.7-0.3,1-0.3c0.2,0,0.3,0,0.4,0.2c0.2,0.1,0.2,0.3,0.2,0.5c0,0.2-0.1,0.4-0.3,0.6c-0.2,0.3-0.6,0.5-1.1,0.6l0.2,0.7
		c0,0,0.9-0.1,1.5-0.8c0.3-0.4,0.5-0.8,0.5-1.2c0-0.4-0.2-0.8-0.5-1.1C201.9,26.1,201.6,26,201.3,26z"/>
	<path class="st0" d="M238.3,51l1.9,0.9l-0.1,0.2c-0.3,0.6-0.4,0.7-1.2,0.7l-1.4,0l-0.3,0.8l1.7,0c0.3,0,0.6,0,0.8-0.1
		c0.1,0,0.1-0.1,0.2-0.1c0,0,0,0.1,0,0.1c0,0.2,0,0.4,0.1,0.5c0.2,0.5,0.9,0.8,1.3,0.8c0.8,0,1.1-0.5,1.5-1.4c0,0,0.5-1.1,0.5-1.1
		l-4.6-2.1L238.3,51z M240.7,52.3l0.1-0.2l1.5,0.7l-0.2,0.4c-0.3,0.6-0.4,0.8-0.8,0.8c-0.2,0-0.6-0.1-0.8-0.5c0-0.1-0.1-0.2-0.1-0.3
		C240.4,52.9,240.6,52.6,240.7,52.3z"/>
	<path class="st0" d="M235.6,55.8c-0.5,0.7-0.9,1.2-0.9,2c0,0.6,0.3,1.4,1,2c0.5,0.4,1,0.6,1.6,0.6c0.7,0,1.3-0.2,2.1-1.3l0.8-1
		l-3.9-3.2L235.6,55.8z M239.2,58.2l-0.2,0.3c-0.5,0.7-0.9,1.1-1.6,1.1c-0.4,0-0.8-0.2-1.2-0.5c-0.4-0.3-0.8-0.8-0.8-1.4
		c0-0.4,0.2-0.9,0.6-1.3l0.3-0.4L239.2,58.2z"/>
	<path class="st0" d="M247.1,43c0-15.9-13-28.9-28.9-28.9c-15.9,0-28.9,13-28.9,28.9c0,9.6,4.7,18.5,12.6,23.9c0.8,2.9,3.4,5,6.6,5
		c0.9,0,1.7-0.2,2.5-0.5c1.1,0.3,2.2,0.6,3.2,0.9c-0.3,0.9-0.8,1.7-1.2,2.4c0,0,0,0,0,0c0,0,0,0,0,0l0.6,0.6
		c0.2-0.1,0.3-0.1,0.5-0.1c0.6,0,1.1,0.5,1.1,1.1c0,0.6-0.5,1.1-1.1,1.1c-0.5,0-1-0.3-1.2-0.7c0,0-0.1,0.5-0.1,1.1
		c0,2.1,2.3,4.4,5.4,5.4c3.1-1,5.4-3.4,5.4-5.4c0-0.7-0.1-1.1-0.1-1.1c-0.2,0.3-0.6,0.7-1.2,0.7c-0.6,0-1.1-0.5-1.1-1.1
		c0-0.6,0.5-1.1,1.1-1.1c0.2,0,0.4,0.1,0.6,0.2l0.6-0.6c0,0,0,0,0,0c-0.3-0.8-0.6-1.5-0.7-2.2c5.2-0.7,9.6-2.9,13.1-6.6l0,0
		C242.9,60.5,247.1,52.1,247.1,43z M208.5,71.1c-3.3,0-6-2.7-6-6c0-1,0.3-2,0.7-2.9c0.3,0.3,0.6,0.6,1,0.9c-0.3,0.6-0.5,1.3-0.5,2
		c0,1.8,0.9,3.3,2.6,4.3c1,0.6,2.1,1.1,3.3,1.6C209.2,71,208.8,71.1,208.5,71.1z M218.2,62.4c-1.2,0-2.5-0.1-3.7-0.3
		c-1.2-2.3-3.5-3.7-6.1-3.7c-0.6,0-1.2,0.1-1.8,0.3c-4.9-3.6-7.8-9.5-7.8-15.6c0-10.7,8.7-19.4,19.4-19.4s19.4,8.7,19.4,19.4
		C237.6,53.7,228.9,62.4,218.2,62.4z M222.5,62.7c-0.6,0.8-0.9,2-1,3.1c-1.8-0.5-3.5-1.1-5-1.8c0.3-0.5,1.1-0.9,1.7-0.9
		C219.7,63.2,221.1,63,222.5,62.7z M216.3,63.1c-0.2,0.2-0.4,0.4-0.6,0.6c-0.7-0.4-1.7-0.8-2.3-1.1C214.4,62.8,215.5,63,216.3,63.1z
		 M208.5,59.1c2,0,3.9,1,5,2.7c-1-0.2-1.9-0.6-2.8-1l0,0l0,0c-0.6-0.3-1.3-0.5-2-0.5c-1.6,0-3,0.8-3.9,2c-0.4-0.2-0.7-0.4-1.1-0.6
		C204.6,60.1,206.4,59.1,208.5,59.1z M222.2,74.3c-1.1,0-1.9,0.8-1.9,1.9c0,1.1,0.9,1.9,1.9,1.9c0.2,0,0.3,0,0.5-0.1
		c-0.2,1.6-2.1,3.4-4.5,4.2c-2.4-0.8-4.3-2.6-4.5-4.2c0.1,0,0.3,0.1,0.5,0.1c1.2,0,1.9-0.8,1.9-1.9c0-1.1-0.8-1.9-1.9-1.9
		c0.3-0.6,0.6-1.2,0.9-1.9c1.3,0.2,2.6,0.4,3.8,0.4c1,0,2-0.1,2.9-0.1c0.1,0.5,0.3,1.1,0.5,1.7C222.2,74.4,222.2,74.3,222.2,74.3z
		 M218.8,72c-3.9,0-8.7-1.3-12-3.3c-1-0.6-2.2-1.7-2.2-3.6c0-0.5,0.1-1,0.3-1.4c1.2,1,2.5,2,3.3,2.4c0.2,0.1,0.3,0.2,0.5,0.2
		c0.5,0,0.9-0.4,0.9-0.9c0-0.4-0.2-0.7-0.6-0.9c-0.7-0.3-2.1-0.9-3.7-1.7c0.7-0.9,1.8-1.6,3.1-1.6c0.6,0,1.1,0.1,1.7,0.4l1.1,0.6
		c3.4,2.1,12.1,7.4,22.6,4.5C229.8,70.2,224.9,72,218.8,72z M235.1,65.4c-4.7,1.7-9.1,1.5-12.8,0.7c0.1-1.7,0.8-3.5,1.9-3.8
		c8.2-2.6,14.2-10.2,14.2-19.3c0-11.1-9.1-20.2-20.2-20.2c-11.2,0-20.2,9.1-20.2,20.2c0,6.2,2.9,12.1,7.8,15.9
		c-1.2,0.5-2.1,1.3-2.9,2.4c-0.4-0.3-0.7-0.5-1.1-0.8l-0.2,0.2c0.2,0.3,0.6,0.6,1,1c-0.6,1-0.9,2.2-0.9,3.4c0,0.2,0,0.4,0,0.6
		c-7.3-5.3-11.6-13.7-11.6-22.7c0-15.5,12.6-28.1,28.1-28.1c15.5,0,28.1,12.6,28.1,28.1C246.3,51.9,242.2,60,235.1,65.4z"/>
</g>
<g>
	<path class="st0" d="M25.6,69c0-0.6-0.2-1.1-0.6-1.5c-0.4-0.4-0.8-0.7-1.4-1.1c-0.6-0.3-1.2-0.6-1.8-0.9c-0.7-0.3-1.3-0.6-1.8-1
		c-0.6-0.4-1-0.9-1.4-1.4C18.2,62.6,18,61.9,18,61c0-1.2,0.4-2.2,1.3-2.9c0.9-0.7,2.1-1.1,3.6-1.1c0.9,0,1.7,0.1,2.5,0.2
		c0.7,0.1,1.3,0.3,1.8,0.5l-0.6,1.6c-0.3-0.2-0.9-0.3-1.5-0.5c-0.7-0.2-1.4-0.2-2.3-0.2c-1,0-1.7,0.2-2.2,0.7
		c-0.5,0.4-0.7,1-0.7,1.6c0,0.6,0.2,1.1,0.6,1.5c0.4,0.4,0.8,0.7,1.4,1c0.6,0.3,1.2,0.6,1.8,0.9c0.7,0.3,1.3,0.6,1.8,1
		c0.6,0.4,1,0.9,1.4,1.4c0.4,0.6,0.6,1.2,0.6,2.1c0,0.7-0.1,1.3-0.4,1.8c-0.2,0.5-0.6,1-1.1,1.4c-0.5,0.4-1,0.7-1.7,0.9
		c-0.7,0.2-1.4,0.3-2.3,0.3c-1.1,0-2.1-0.1-2.8-0.3c-0.7-0.2-1.3-0.4-1.7-0.6l0.6-1.7c0.3,0.2,0.9,0.4,1.5,0.6
		c0.7,0.2,1.4,0.3,2.3,0.3c0.5,0,1,0,1.4-0.1c0.4-0.1,0.8-0.3,1.1-0.5c0.3-0.2,0.6-0.5,0.8-0.8C25.5,69.9,25.6,69.5,25.6,69z"/>
	<path class="st0" d="M44,59h-4.9V73h-1.9V59h-4.9v-1.7H44V59z"/>
	<path class="st0" d="M58.7,57.3h1.8v10.5c0,0.9-0.1,1.8-0.4,2.5c-0.2,0.7-0.6,1.3-1.1,1.7c-0.5,0.4-1,0.8-1.7,1
		c-0.6,0.2-1.4,0.3-2.1,0.3c-1.9,0-3.3-0.4-4.2-1.3s-1.4-2.1-1.4-3.8V57.3h1.9v10c0,0.8,0.1,1.5,0.2,2c0.2,0.5,0.4,1,0.7,1.3
		c0.3,0.3,0.7,0.6,1.2,0.7c0.5,0.2,1,0.2,1.7,0.2c1.2,0,2.1-0.3,2.6-1c0.5-0.7,0.8-1.8,0.8-3.3V57.3z"/>
	<path class="st0" d="M67.7,57.3c0.3,0,0.6-0.1,1-0.1c0.4,0,0.7,0,1.1,0c0.4,0,0.8,0,1.1,0c0.4,0,0.7,0,1,0c1.3,0,2.4,0.2,3.3,0.6
		c0.9,0.4,1.7,0.9,2.3,1.6c0.6,0.7,1,1.5,1.3,2.5s0.4,2,0.4,3.2c0,1.1-0.1,2.1-0.4,3.1s-0.7,1.9-1.3,2.6c-0.6,0.8-1.4,1.4-2.3,1.8
		c-1,0.5-2.1,0.7-3.5,0.7c-0.2,0-0.6,0-0.9,0c-0.4,0-0.8,0-1.2,0c-0.4,0-0.8,0-1.1-0.1c-0.3,0-0.6,0-0.7-0.1V57.3z M72,58.8
		c-0.2,0-0.4,0-0.6,0c-0.2,0-0.5,0-0.7,0c-0.2,0-0.4,0-0.6,0c-0.2,0-0.3,0-0.4,0v12.6c0.1,0,0.2,0,0.4,0c0.2,0,0.4,0,0.7,0
		c0.2,0,0.4,0,0.7,0c0.2,0,0.4,0,0.4,0c1.1,0,1.9-0.2,2.6-0.5c0.7-0.4,1.3-0.8,1.7-1.5c0.4-0.6,0.7-1.3,0.9-2.1
		c0.2-0.8,0.3-1.6,0.3-2.4c0-0.7-0.1-1.5-0.2-2.2c-0.2-0.7-0.5-1.4-0.9-2c-0.4-0.6-0.9-1.1-1.6-1.5C73.9,59,73,58.8,72,58.8z"/>
	<path class="st0" d="M88.3,66.8l-5.2-9.5h2.2l3.7,6.9l0.4,1.4h0l0.4-1.4l3.5-6.8h2l-5.2,9.5V73h-1.9V66.8z"/>
	<path class="st0" d="M119,73h-9.3V57.3h1.9v14.1h7.5V73z"/>
	<path class="st0" d="M122.5,65.2c0-2.6,0.6-4.6,1.7-6c1.1-1.4,2.7-2.1,4.7-2.1c1.1,0,2.1,0.2,2.9,0.6c0.8,0.4,1.5,0.9,2,1.7
		c0.5,0.7,0.9,1.6,1.2,2.6c0.3,1,0.4,2.1,0.4,3.3c0,2.6-0.6,4.6-1.7,6c-1.1,1.4-2.7,2.1-4.8,2.1c-1.1,0-2-0.2-2.8-0.6
		c-0.8-0.4-1.5-0.9-2-1.7c-0.5-0.7-0.9-1.6-1.2-2.6C122.6,67.5,122.5,66.4,122.5,65.2z M124.5,65.2c0,0.9,0.1,1.7,0.3,2.5
		s0.4,1.5,0.8,2.1c0.4,0.6,0.8,1.1,1.4,1.4c0.6,0.4,1.2,0.5,2,0.5c1.4,0,2.5-0.5,3.3-1.6c0.8-1.1,1.2-2.7,1.2-4.9
		c0-0.9-0.1-1.7-0.3-2.5c-0.2-0.8-0.4-1.5-0.8-2.1c-0.4-0.6-0.8-1.1-1.4-1.4c-0.6-0.4-1.2-0.5-2-0.5c-1.4,0-2.5,0.5-3.3,1.6
		C124.9,61.3,124.5,63,124.5,65.2z"/>
	<path class="st0" d="M148.9,68.7h-5.8l-1.6,4.4h-1.9l6-16h0.9l6,16h-2L148.9,68.7z M143.7,67.1h4.6l-1.7-4.8l-0.6-2.4h0l-0.6,2.4
		L143.7,67.1z"/>
	<path class="st0" d="M160.8,62.7l-1.2-2.3h-0.1l0.2,2.3V73h-1.8V57h1l7.5,10.5l1.2,2.2h0.1l-0.2-2.2V57.3h1.8v16h-1L160.8,62.7z"/>
</g>
</svg>
